<svg xmlns="http://www.w3.org/2000/svg" xml:space="preserve" width="49.942253mm" height="34.298161mm" viewBox="0 0 49.942253 34.298161"><path d="M78.834 127.063c.941-1.558 2.702-3.897 4.83-6.133 2.673-2.808 6.081-5.079 8.185-6.224 4.148-2.259 5.538-2.61 9.602-3.863.86-.265 3.257.006 8.133.424 1.234.105 2.289.964 2.266 2.667-.123 8.934-8.363 16.589-16.889 15.688-2.042-.216-4.534-1.172-6.2-2.125l-3.03-1.734c-.29 1.232-.52 2.627-.849 3.76-2.826-.118-4.667-.075-7.416-.196zm24.959-5.146c1.109-.827 1.259-1.002 1.999-2.085 1.095-1.603 1.067-3.04.951-4.895 0 0-.093-1.56-.376-1.767-.282-.208-1.895-.408-2.773-.471-.75-.054-2.469.146-2.469.146-3.23.471-6.197 2.32-10.93 5.302-2.1 1.325-2.078 1.604-1.13 2.811.4.51 1.828 1.394 2.778 1.836 1.822.846 3.277 1.198 4.916 1.201 1.651-.098 2.278.024 4.05-.58 0 0 1.034-.335 1.488-.594.443-.253 1.496-.904 1.496-.904z" style="display:inline;fill:#02519a;fill-opacity:1;stroke-width:.694446" transform="translate(-61.908 -95.757)"/><path d="M63.228 128.207c2.245-3.143 9.73-9.974 13.41-12.238 3.19-1.963 3.505-2.376 3.51-4.618.01-3.227 2.613-8.635 5.455-11.332 6.225-5.905 16-5.642 21.923.59l2.186 2.3-2.26 2.191-2.261 2.191-2.003-2.002c-5.14-5.141-13.134-3.667-16.37 3.018-.8 1.652-1.308 3.15-1.13 3.328.178.178 1.65.018 3.269-.355 1.62-.373 5.968-.65 9.664-.616 5.427.05 6.138.161 3.696.576-12.211 2.074-24.624 8.755-29.23 15.732l-1.97 3.112-4.581.015-4.628-.044z" style="display:inline;fill:#078270;fill-opacity:1;stroke-width:.671958" transform="translate(-61.908 -95.757)"/><path d="M63.356 128.324c2.245-3.143 9.567-9.845 13.247-12.11 3.19-1.963 3.703-2.563 3.71-4.805.008-3.227 2.518-8.506 5.36-11.203 2.904-2.754 6.56-4.204 10.18-4.293 4.139-.1 8.142 1.415 11.268 4.445l2.368 2.574c-1.602 1.552-2.815 2.752-4.28 4.172l-1.892-1.897c-2.211-2.218-5.026-3.288-7.76-3.147-3.614.185-7.095 2.418-8.938 6.224-.8 1.652-1.273 3.313-1.095 3.49.179.18 1.813.008 3.433-.365 1.62-.374 5.933-.651 9.629-.617 5.427.051 5.908-.033 3.466.382-12.21 2.074-24.577 8.792-29.211 15.751l-1.893 2.995c-2.885-.051-5.77-.039-8.654-.029z" style="display:inline;fill:#00a393;fill-opacity:1;stroke-width:.671958" transform="translate(-61.908 -95.757)"/><path d="M70.715 109.684c-2.832-2.661-.808-7.734 3.086-7.734.943 0 2.331.58 3.086 1.289 2.832 2.662.808 7.734-3.086 7.734-.943 0-2.332-.58-3.086-1.289z" style="display:inline;fill:#e41718;fill-opacity:1;stroke-width:.664815" transform="translate(-61.908 -95.757)"/></svg>